<svg xmlns="http://www.w3.org/2000/svg" viewBox="0 0 1000 660"><defs><pattern id="grid" width="24" height="24" patternUnits="userSpaceOnUse"><path d="M24 0H0V24" fill="none" stroke="#ffffff" stroke-opacity=".08"/></pattern><filter id="shadow" x="-30%" y="-30%" width="170%" height="190%"><feDropShadow dx="0" dy="16" stdDeviation="17" flood-color="#102d4d" flood-opacity=".18"/></filter></defs><style>text{font-family:Arial,sans-serif;fill:#163354} .muted{fill:#62768b} .small{font-size:17px} .line{stroke:#ccd9e3;stroke-width:1.5} .blue{fill:#2456dc} .paper{fill:#fafbf9}</style><rect width="1000" height="660" fill="#c6d9e6"/><rect width="1000" height="660" fill="url(#grid)"/>
<g transform="translate(34 111) rotate(-7 135 200)" filter="url(#shadow)"><rect width="277" height="417" rx="5" fill="#f2e7d8"/><path d="M35 0V417" stroke="#c9917a" stroke-opacity=".45"/><text x="55" y="50" font-size="23">Purchase records</text><path d="M18 87H259" stroke="#c1c7c2"/><path d="M55 77q16 -10 25 0t29 -2m20 0q12 -8 21 0m17 -2h51" fill="none" stroke="#6b7380" stroke-width="2" stroke-linecap="round" opacity=".6"/><path d="M18 124H259" stroke="#c1c7c2"/><path d="M55 114q16 -10 25 0t29 -2m20 0q12 -8 21 0m17 -2h51" fill="none" stroke="#6b7380" stroke-width="2" stroke-linecap="round" opacity=".6"/><path d="M18 161H259" stroke="#c1c7c2"/><path d="M55 151q16 -10 25 0t29 -2m20 0q12 -8 21 0m17 -2h51" fill="none" stroke="#6b7380" stroke-width="2" stroke-linecap="round" opacity=".6"/><path d="M18 198H259" stroke="#c1c7c2"/><path d="M55 188q16 -10 25 0t29 -2m20 0q12 -8 21 0m17 -2h51" fill="none" stroke="#6b7380" stroke-width="2" stroke-linecap="round" opacity=".6"/><path d="M18 235H259" stroke="#c1c7c2"/><path d="M55 225q16 -10 25 0t29 -2m20 0q12 -8 21 0m17 -2h51" fill="none" stroke="#6b7380" stroke-width="2" stroke-linecap="round" opacity=".6"/><path d="M18 272H259" stroke="#c1c7c2"/><path d="M55 262q16 -10 25 0t29 -2m20 0q12 -8 21 0m17 -2h51" fill="none" stroke="#6b7380" stroke-width="2" stroke-linecap="round" opacity=".6"/><path d="M18 309H259" stroke="#c1c7c2"/><path d="M55 299q16 -10 25 0t29 -2m20 0q12 -8 21 0m17 -2h51" fill="none" stroke="#6b7380" stroke-width="2" stroke-linecap="round" opacity=".6"/><path d="M18 346H259" stroke="#c1c7c2"/><path d="M55 336q16 -10 25 0t29 -2m20 0q12 -8 21 0m17 -2h51" fill="none" stroke="#6b7380" stroke-width="2" stroke-linecap="round" opacity=".6"/><path d="M18 383H259" stroke="#c1c7c2"/><path d="M55 373q16 -10 25 0t29 -2m20 0q12 -8 21 0m17 -2h51" fill="none" stroke="#6b7380" stroke-width="2" stroke-linecap="round" opacity=".6"/></g><path d="M240 267H340" stroke="#2456dc" stroke-width="3"/><path d="m331 259 9 8-9 8" fill="none" stroke="#2456dc" stroke-width="3"/>
<g transform="translate(325 57) rotate(2 300 255)" filter="url(#shadow)"><rect width="605" height="515" rx="8" class="paper"/><rect width="605" height="9" rx="4" fill="#2456dc"/><text x="35" y="55" class="small muted">01 / CUSTOMER RECORD</text><text x="35" y="103" font-size="34" font-weight="bold">Every purchase, connected.</text><text x="35" y="136" class="small muted">A structure for seeing who buys what, and how often.</text><rect x="30" y="168" width="545" height="43" rx="3" fill="#e8eef6"/><text x="44" y="195" class="small">Customer</text><text x="229" y="195" class="small">Purchase history</text><text x="422" y="195" class="small">Frequency</text><circle cx="53" cy="240" r="11" fill="#cad6e4"/><rect x="77" y="234" width="98" height="9" rx="4" fill="#b8c6d6"/><rect x="230" y="234" width="128" height="9" rx="4" fill="#cad6e4"/><rect x="427" y="229" width="98" height="25" rx="12" fill="#dce6f6"/><path d="M35 265H570" class="line"/><circle cx="53" cy="295" r="11" fill="#cad6e4"/><rect x="77" y="289" width="98" height="9" rx="4" fill="#b8c6d6"/><rect x="230" y="289" width="128" height="9" rx="4" fill="#cad6e4"/><rect x="427" y="284" width="98" height="25" rx="12" fill="#dce6f6"/><path d="M35 320H570" class="line"/><circle cx="53" cy="350" r="11" fill="#cad6e4"/><rect x="77" y="344" width="98" height="9" rx="4" fill="#b8c6d6"/><rect x="230" y="344" width="128" height="9" rx="4" fill="#cad6e4"/><rect x="427" y="339" width="98" height="25" rx="12" fill="#dce6f6"/><path d="M35 375H570" class="line"/><path d="M42 405H558" class="line"/><rect x="35" y="429" width="535" height="53" rx="5" fill="#112b50"/><text x="55" y="462" font-size="21" fill="#fff" style="fill:#fff">Buying patterns</text><text x="295" y="462" font-size="21" style="fill:#ffa276">→ A business baseline</text></g><g transform="translate(546 545) rotate(-3)"><rect width="337" height="68" rx="5" fill="#ffa276"/><text x="20" y="29" font-size="18" font-weight="bold">Keep the open questions visible.</text><text x="20" y="51" font-size="16">Unverified figures stay marked.</text></g></svg>