<svg xmlns="http://www.w3.org/2000/svg" viewBox="0 0 800 560"><defs><pattern id="grid" width="24" height="24" patternUnits="userSpaceOnUse"><path d="M24 0H0V24" fill="none" stroke="#ffffff" stroke-opacity=".08"/></pattern><filter id="shadow" x="-30%" y="-30%" width="170%" height="190%"><feDropShadow dx="0" dy="16" stdDeviation="17" flood-color="#102d4d" flood-opacity=".18"/></filter></defs><style>text{font-family:Arial,sans-serif;fill:#163354} .muted{fill:#62768b} .small{font-size:17px} .line{stroke:#ccd9e3;stroke-width:1.5} .blue{fill:#2456dc} .paper{fill:#fafbf9}</style><rect width="800" height="560" fill="#17375d"/><rect width="800" height="560" fill="url(#grid)"/><g transform="translate(45 42) rotate(2 350 230)" filter="url(#shadow)"><rect width="710" height="470" rx="6" class="paper"/><text x="30" y="44" class="small muted">03 / PROCESS STUDY</text><text x="30" y="89" font-size="33" font-weight="bold">Make the handoffs visible.</text><text x="30" y="123" class="small muted">A working outline to check with the people doing it.</text><g stroke="#8197b1" stroke-width="2" fill="none"><path d="M200 221H263m177 0h50m87 39v54H353v33"/><path d="m256 214 7 7-7 7m227-14 7 7-7 7m-144 119 7 7 7-7"/></g><rect x="28" y="185" width="172" height="74" rx="5" fill="#e4ebf5"/><text x="48" y="228" font-size="22">Request</text><rect x="263" y="185" width="178" height="74" rx="5" fill="#dce6f8"/><text x="280" y="228" font-size="22">Input check</text><rect x="491" y="185" width="184" height="74" rx="5" fill="#e4ebf5"/><text x="518" y="228" font-size="22">Prepare</text><rect x="263" y="348" width="179" height="66" rx="5" fill="#2456dc"/><text x="310" y="390" font-size="22" style="fill:#fff">Review</text><path d="M263 380H118V261" stroke="#c18c6e" stroke-width="2" stroke-dasharray="6 5" fill="none"/><text x="58" y="337" font-size="17" class="muted">Clarify</text><path d="M460 303q42-35 67-44" stroke="#c6855a" stroke-width="2" fill="none"/><g transform="translate(464 331) rotate(-5)"><rect width="224" height="102" rx="4" fill="#ffb38a"/><text x="17" y="35" font-size="22">Who owns</text><text x="17" y="62" font-size="22">this handoff?</text><text x="17" y="86" font-size="15">Check with the team.</text></g></g></svg>